# xmcd
#
# Track frame offsets: 
#        150
#        15225
#        30900
#
# Disc length: 577 seconds
#
# Revision: 0
# Processed by: cddbd v1.5.2PL0 Copyright (c) Steve Scherf et al.
# Submitted via: ExactAudioCopy v0.99pb4
#
DISCID=0e023f03
DTITLE=The Wreckers - Leave The Pieces
DYEAR=2006
DGENRE=Country
TTITLE0=Leave The Pieces (Pop Edit)
TTITLE1=My, Oh My (Demo)
TTITLE2=Stand Still, Look Pretty
EXTD=
EXTT0=
EXTT1=
EXTT2=
PLAYORDER=
